# xmcd
#
# Track frame offsets:
#	150
#	17863
#	32451
#	49018
#	61981
#	80453
#	97777
#	112512
#	129677
#	143646
#	161245
#	179021
#	196432
#	211072
#
# Disc length: 2989 seconds
#
# Revision: 1
# Processed by: cddbd v1.5.2PL0 Copyright (c) Steve Scherf et al.
# Submitted via: audiograbber 1.83.01
#
DISCID=b40bab0e
DTITLE=Smif´N`Wessun - The Album
DYEAR=2007
DGENRE=Rap
TTITLE0=See The Light
TTITLE1=Gotta Say It feat. Chuckii Star
TTITLE2=Trouble
TTITLE3=K.I.M.2000 feat. Loudmouf Choir
TTITLE4=P.N.C.4 Life
TTITLE5=Gangsta Prayer feat. Million Styles
TTITLE6=Stomp Thru feat. Joell Ortiz and Rock
TTITLE7=Who Gonna Save Us
TTITLE8=Still Fighting
TTITLE9=Yeah
TTITLE10=Movie
TTITLE11=Cant Stop
TTITLE12=Cant Feel My Face feat. Loudmouf Choir
TTITLE13=Still Here
EXTD=
EXTT0=
EXTT1=
EXTT2=
EXTT3=
EXTT4=
EXTT5=
EXTT6=
EXTT7=
EXTT8=
EXTT9=
EXTT10=
EXTT11=
EXTT12=
EXTT13=
PLAYORDER=
